<?xml version="1.0" encoding="UTF-8"?>
<svg width="692px" height="281px" viewBox="0 0 692 281" version="1.1" xmlns="http://www.w3.org/2000/svg" xmlns:xlink="http://www.w3.org/1999/xlink">
    <title>bottom wings</title>
    <defs>
        <path d="M197.3383,1.6293 C225.9363,5.6573 298.3753,29.3473 325.3183,42.1593 C331.0263,44.8733 334.0243,51.2353 332.4943,57.3683 C312.4163,137.8783 251.6633,228.9133 177.0143,266.0073 C145.2363,279.8203 110.6943,286.0863 77.7473,272.4553 C21.0113,249.8653 -8.6357,183.0483 2.2133,124.3193 C10.5293,76.3133 44.5013,34.8383 89.6613,16.4173 C124.2773,1.4633 159.9573,-2.7237 197.3383,1.6293 Z M602.1209,16.4173 C647.2809,34.8383 681.2529,76.3133 689.5689,124.3193 C700.4179,183.0483 670.7709,249.8653 614.0349,272.4553 C581.0879,286.0863 546.5459,279.8203 514.7679,266.0073 C440.1189,228.9133 379.3669,137.8783 359.2879,57.3683 C357.7579,51.2353 360.7559,44.8733 366.4639,42.1593 C393.4069,29.3473 465.8459,5.6573 494.4439,1.6293 C531.8249,-2.7237 567.5049,1.4633 602.1209,16.4173 Z" id="path-1"></path>
    </defs>
    <g id="bottom-wings" stroke="none" fill="none" xlink:href="#path-1" fill-rule="evenodd">
        <path d="M332.4943,57.3683 C334.0243,51.2353 331.0263,44.8733 325.3183,42.1593 C298.3753,29.3473 225.9363,5.6573 197.3383,1.6293 C159.9573,-2.7237 124.2773,1.4633 89.6613,16.4173 C44.5013,34.8383 10.5293,76.3133 2.2133,124.3193 C-8.6357,183.0483 21.0113,249.8653 77.7473,272.4553 C110.6943,286.0863 145.2363,279.8203 177.0143,266.0073 C251.6633,228.9133 312.4163,137.8783 332.4943,57.3683" id="Fill-1" fill="#942500"></path>
        <path d="M359.2879,57.3683 C357.7579,51.2353 360.7559,44.8733 366.4639,42.1593 C393.4069,29.3473 465.8459,5.6573 494.4439,1.6293 C531.8249,-2.7237 567.5049,1.4633 602.1209,16.4173 C647.2809,34.8383 681.2529,76.3133 689.5689,124.3193 C700.4179,183.0483 670.7709,249.8653 614.0349,272.4553 C581.0879,286.0863 546.5459,279.8203 514.7679,266.0073 C440.1189,228.9133 379.3669,137.8783 359.2879,57.3683" id="Fill-4" fill="#942500"></path>
    </g>
</svg>