<?xml version="1.0" encoding="UTF-8"?>
<svg id="Layer_1" data-name="Layer 1" xmlns="http://www.w3.org/2000/svg" viewBox="0 0 1067.13 913.98">
  <g id="Generative_Object" data-name="Generative Object">
    <g>
      <path d="M272.47,649.81c-60.79,25.87-97.26,91.63-85.39,156.83,6.18,36.13,26.35,70.51,57.59,90.25,36.08,23.59,79.73,21.31,117.2,2.1,77.67-38.59,140.3-135.58,157.72-218.36,1.39-9.98,1.11-21.93.3-32.53-16.63-235.46-188.51-424.16-371.07-557.18C108.27,61.53,67.81,35.02,24.04,10.07c-3.75-2.22-7.66-4.4-11.42-6.35C8.46,1.58,5.15.24,3.04.04,2.17-.06,1.44.01.79.46c-1.81,1.34-.31,5.99,2.5,12.36,32.55,67.93,62.68,138.93,84.46,210.89,4.97,16.13,9,31.51,13.07,47.87,6.02,24.13,11.71,46.42,17.09,70.53,7.79,34.06,15.36,69.29,26.92,102.38,29.73,84.77,89.2,162.77,182.86,176.61,16.28,2.83,32.76,4.98,48.93,8.29,32.65,6.57,64.86,16.37,95.49,29.5,4.19,1.81,15.3,6.79,7.35,6.02-5.99-.85-16.62-3.43-23.61-5.11-25.98-6.05-52.13-12.11-78.54-16.27-36.28-6.26-70.14-9.33-104.67,6.21l-.19.08Z"/>
      <path d="M794.65,649.81c60.79,25.87,97.26,91.63,85.39,156.83-6.18,36.13-26.35,70.51-57.59,90.25-36.08,23.59-79.73,21.31-117.2,2.1-77.67-38.59-140.3-135.58-157.72-218.36-1.39-9.98-1.11-21.93-.3-32.53,16.63-235.46,188.51-424.16,371.07-557.18,40.55-29.39,81.01-55.9,124.78-80.85,3.75-2.22,7.66-4.4,11.42-6.35,4.17-2.14,7.47-3.48,9.58-3.68.87-.09,1.61-.03,2.25.43,1.81,1.34.31,5.99-2.5,12.36-32.55,67.93-62.68,138.93-84.46,210.89-4.97,16.13-9,31.51-13.07,47.87-6.02,24.13-11.71,46.42-17.09,70.53-7.79,34.06-15.36,69.29-26.92,102.38-29.73,84.77-89.2,162.77-182.86,176.61-16.28,2.83-32.76,4.98-48.93,8.29-32.65,6.57-64.86,16.37-95.49,29.5-4.19,1.81-15.3,6.79-7.35,6.02,5.99-.85,16.62-3.43,23.61-5.11,25.98-6.05,52.13-12.11,78.54-16.27,36.28-6.26,70.14-9.33,104.67,6.21l.19.08Z"/>
    </g>
  </g>
</svg>