<?xml version="1.0" encoding="UTF-8"?>
<svg id="Layer_1" data-name="Layer 1" xmlns="http://www.w3.org/2000/svg" viewBox="0 0 1067.72 681.05">
  <path d="M520.85,667.91c.08-6.6-.48-13.47-.96-19.81-16.63-235.46-188.51-424.16-371.07-557.18C108.27,61.53,67.81,35.02,24.04,10.07c-3.75-2.22-7.66-4.4-11.42-6.35C8.46,1.58,5.15.24,3.04.04,2.17-.06,1.44.01.79.46c-1.81,1.34-.31,5.99,2.5,12.36,32.55,67.93,62.68,138.93,84.46,210.89,4.97,16.13,9,31.51,13.07,47.87,6.02,24.13,11.71,46.42,17.09,70.53,7.79,34.06,15.36,69.29,26.92,102.38,29.73,84.77,92.4,183.68,183.65,193.81,59.46,5.12,118.99,16.79,173.65,41.56,8.71,3.96,18.59-2.37,18.71-11.94Z"/>
  <path d="M546.87,667.91c-.08-6.6.48-13.47.96-19.81,16.63-235.46,188.51-424.16,371.07-557.18,40.55-29.39,81.01-55.9,124.78-80.85,3.75-2.22,7.66-4.4,11.42-6.35,4.17-2.14,7.47-3.48,9.58-3.68.87-.09,1.61-.03,2.25.43,1.81,1.34.31,5.99-2.5,12.36-32.55,67.93-62.68,138.93-84.46,210.89-4.97,16.13-9,31.51-13.07,47.87-6.02,24.13-11.71,46.42-17.09,70.53-7.79,34.06-15.36,69.29-26.92,102.38-29.73,84.77-92.4,183.68-183.65,193.81-59.46,5.12-118.99,16.79-173.65,41.56-8.71,3.96-18.59-2.37-18.71-11.94Z"/>
</svg>