<?xml version="1.0" encoding="UTF-8"?>
<svg id="Layer_1" data-name="Layer 1" xmlns="http://www.w3.org/2000/svg" viewBox="0 0 695.51 281.71">
  <defs>
    <style>
      .cls-1 {
        fill: #942500;
      }

      .cls-2 {
        opacity: .9;
      }
    </style>
  </defs>
  <g class="cls-2">
    <path class="cls-1" d="M2.23,174.37c6.18,36.13,26.35,70.51,57.59,90.25,36.08,23.59,79.73,21.31,117.2,2.1,77.67-38.59,140.3-135.58,157.72-218.36,1.39-9.98-103.87-41.3-137.39-46.02-40-6.16-72.17.2-109.72,15.2C26.83,43.41-9.64,109.16,2.23,174.37Z"/>
    <path class="cls-1" d="M693.27,174.37c-6.18,36.13-26.35,70.51-57.59,90.25-36.08,23.59-79.73,21.31-117.2,2.1-77.67-38.59-140.3-135.58-157.72-218.36-1.39-9.98,103.87-41.3,137.39-46.02,40-6.16,72.17.2,109.72,15.2,60.79,25.87,97.26,91.63,85.39,156.83Z"/>
  </g>
</svg>