<?xml version="1.0" encoding="UTF-8"?>
<svg width="1062px" height="677px" viewBox="0 0 1062 677" version="1.1" xmlns="http://www.w3.org/2000/svg" xmlns:xlink="http://www.w3.org/1999/xlink">
    <title>Frame</title>
    <defs>
        <path d="M517.610132,663.681249 C517.693132,657.078249 517.131132,650.210249 516.648132,643.873249 C500.018132,408.413249 328.135132,219.718249 145.581132,86.6952489 C105.029132,57.3062489 64.5661318,30.7902489 20.7991318,5.84624893 C14.6381318,2.29524893 7.67213185,-1.53975107 3.84413185,0.63324893 C0.784131846,2.24224893 -1.05586815,6.52724893 0.656131846,9.85924893 C32.9771318,77.4102489 62.8691318,147.970249 84.5151318,219.480249 C89.4801318,235.613249 93.5161318,250.992249 97.5871318,267.352249 C103.606132,291.486249 109.297132,313.774249 114.682132,337.883249 C122.474132,371.944249 130.041132,407.176249 141.604132,440.259249 C171.330132,525.033249 234.005132,623.936249 325.253132,634.064249 C384.709132,639.181249 444.242132,650.853249 498.903132,675.622249 C507.616132,679.584249 517.489132,673.252249 517.610132,663.681249 M543.626732,663.681249 C543.543732,657.078249 544.105732,650.210249 544.588732,643.873249 C561.218732,408.413249 733.100732,219.718249 915.655732,86.6952489 C956.207732,57.3062489 996.670732,30.7902489 1040.43773,5.84624893 C1046.59873,2.29524893 1053.56473,-1.53975107 1057.39273,0.63324893 C1060.45273,2.24224893 1062.29273,6.52724893 1060.58073,9.85924893 C1028.25973,77.4102489 998.367732,147.970249 976.721732,219.480249 C971.756732,235.613249 967.720732,250.992249 963.649732,267.352249 C957.630732,291.486249 951.939732,313.774249 946.554732,337.883249 C938.762732,371.944249 931.195732,407.176249 919.631732,440.259249 C889.906732,525.033249 827.231732,623.936249 735.983732,634.064249 C676.527732,639.181249 616.994732,650.853249 562.333732,675.622249 C553.620732,679.584249 543.747732,673.252249 543.626732,663.681249" id="path-1"></path>
    </defs>
    <g id="Frame" stroke="none" fill="none" transform="translate(-0.0001, -0.0003)" xlink:href="#path-1" fill-rule="evenodd">
        <path d="M517.610132,663.681249 C517.693132,657.078249 517.131132,650.210249 516.648132,643.873249 C500.018132,408.413249 328.135132,219.718249 145.581132,86.6952489 C105.029132,57.3062489 64.5661318,30.7902489 20.7991318,5.84624893 C14.6381318,2.29524893 7.67213185,-1.53975107 3.84413185,0.63324893 C0.784131846,2.24224893 -1.05586815,6.52724893 0.656131846,9.85924893 C32.9771318,77.4102489 62.8691318,147.970249 84.5151318,219.480249 C89.4801318,235.613249 93.5161318,250.992249 97.5871318,267.352249 C103.606132,291.486249 109.297132,313.774249 114.682132,337.883249 C122.474132,371.944249 130.041132,407.176249 141.604132,440.259249 C171.330132,525.033249 234.005132,623.936249 325.253132,634.064249 C384.709132,639.181249 444.242132,650.853249 498.903132,675.622249 C507.616132,679.584249 517.489132,673.252249 517.610132,663.681249" id="Fill-1" fill="#000000"></path>
        <path d="M543.626732,663.681249 C543.543732,657.078249 544.105732,650.210249 544.588732,643.873249 C561.218732,408.413249 733.100732,219.718249 915.655732,86.6952489 C956.207732,57.3062489 996.670732,30.7902489 1040.43773,5.84624893 C1046.59873,2.29524893 1053.56473,-1.53975107 1057.39273,0.63324893 C1060.45273,2.24224893 1062.29273,6.52724893 1060.58073,9.85924893 C1028.25973,77.4102489 998.367732,147.970249 976.721732,219.480249 C971.756732,235.613249 967.720732,250.992249 963.649732,267.352249 C957.630732,291.486249 951.939732,313.774249 946.554732,337.883249 C938.762732,371.944249 931.195732,407.176249 919.631732,440.259249 C889.906732,525.033249 827.231732,623.936249 735.983732,634.064249 C676.527732,639.181249 616.994732,650.853249 562.333732,675.622249 C553.620732,679.584249 543.747732,673.252249 543.626732,663.681249" id="Fill-4" fill="#000000"></path>
    </g>
</svg>